<mxfile host="app.diagrams.net" modified="2020-11-12T20:41:52.539Z" agent="5.0 (Windows NT 10.0; Win64; x64) AppleWebKit/537.36 (KHTML, like Gecko) Chrome/86.0.4240.183 Safari/537.36 Edg/86.0.622.63" etag="hlNrzhMTyql5-PWnuA0i" version="13.9.6" type="github">
  <diagram id="JOVWKT4qvr71FNUXydbt" name="Page-1">
    <mxGraphModel dx="1662" dy="856" grid="1" gridSize="10" guides="1" tooltips="1" connect="1" arrows="1" fold="1" page="1" pageScale="1" pageWidth="850" pageHeight="1100" math="0" shadow="0">
      <root>
        <mxCell id="0" />
        <mxCell id="1" parent="0" />
        <mxCell id="h6kPkTVQXJsnWw4E5mSr-7" style="edgeStyle=orthogonalEdgeStyle;rounded=0;orthogonalLoop=1;jettySize=auto;html=1;entryX=0.5;entryY=1;entryDx=0;entryDy=0;exitX=0.672;exitY=-0.025;exitDx=0;exitDy=0;exitPerimeter=0;" parent="1" source="h6kPkTVQXJsnWw4E5mSr-1" target="h6kPkTVQXJsnWw4E5mSr-3" edge="1">
          <mxGeometry relative="1" as="geometry" />
        </mxCell>
        <mxCell id="h6kPkTVQXJsnWw4E5mSr-11" style="edgeStyle=orthogonalEdgeStyle;rounded=0;orthogonalLoop=1;jettySize=auto;html=1;entryX=0.5;entryY=0;entryDx=0;entryDy=0;exitX=0.335;exitY=1.035;exitDx=0;exitDy=0;exitPerimeter=0;" parent="1" source="h6kPkTVQXJsnWw4E5mSr-1" target="h6kPkTVQXJsnWw4E5mSr-10" edge="1">
          <mxGeometry relative="1" as="geometry" />
        </mxCell>
        <mxCell id="h6kPkTVQXJsnWw4E5mSr-13" style="edgeStyle=orthogonalEdgeStyle;rounded=0;orthogonalLoop=1;jettySize=auto;html=1;exitX=0.5;exitY=1;exitDx=0;exitDy=0;entryX=0.5;entryY=0;entryDx=0;entryDy=0;" parent="1" source="h6kPkTVQXJsnWw4E5mSr-1" target="h6kPkTVQXJsnWw4E5mSr-12" edge="1">
          <mxGeometry relative="1" as="geometry" />
        </mxCell>
        <mxCell id="h6kPkTVQXJsnWw4E5mSr-1" value="Corridor" style="rounded=0;whiteSpace=wrap;html=1;" parent="1" vertex="1">
          <mxGeometry x="340" y="180" width="120" height="40" as="geometry" />
        </mxCell>
        <mxCell id="h6kPkTVQXJsnWw4E5mSr-6" style="edgeStyle=orthogonalEdgeStyle;rounded=0;orthogonalLoop=1;jettySize=auto;html=1;exitX=0.5;exitY=1;exitDx=0;exitDy=0;entryX=0.325;entryY=0.035;entryDx=0;entryDy=0;entryPerimeter=0;" parent="1" source="h6kPkTVQXJsnWw4E5mSr-2" target="h6kPkTVQXJsnWw4E5mSr-1" edge="1">
          <mxGeometry relative="1" as="geometry" />
        </mxCell>
        <mxCell id="h6kPkTVQXJsnWw4E5mSr-2" value="Bedroom" style="shape=process;whiteSpace=wrap;html=1;backgroundOutline=1;size=0.08333333333333239;" parent="1" vertex="1">
          <mxGeometry x="260" y="100" width="120" height="40" as="geometry" />
        </mxCell>
        <mxCell id="h6kPkTVQXJsnWw4E5mSr-24" style="edgeStyle=orthogonalEdgeStyle;rounded=0;orthogonalLoop=1;jettySize=auto;html=1;exitX=0.5;exitY=0;exitDx=0;exitDy=0;entryX=0.5;entryY=1;entryDx=0;entryDy=0;fillColor=#fa6800;strokeColor=#C73500;" parent="1" source="h6kPkTVQXJsnWw4E5mSr-3" target="h6kPkTVQXJsnWw4E5mSr-23" edge="1">
          <mxGeometry relative="1" as="geometry" />
        </mxCell>
        <mxCell id="h6kPkTVQXJsnWw4E5mSr-3" value="Kitchen" style="shape=process;whiteSpace=wrap;html=1;backgroundOutline=1;size=0.08333333333333239;" parent="1" vertex="1">
          <mxGeometry x="420" y="100" width="120" height="40" as="geometry" />
        </mxCell>
        <mxCell id="h6kPkTVQXJsnWw4E5mSr-10" value="Living room" style="rounded=0;whiteSpace=wrap;html=1;" parent="1" vertex="1">
          <mxGeometry x="260" y="260" width="120" height="40" as="geometry" />
        </mxCell>
        <mxCell id="h6kPkTVQXJsnWw4E5mSr-18" style="edgeStyle=orthogonalEdgeStyle;rounded=0;orthogonalLoop=1;jettySize=auto;html=1;exitX=0.338;exitY=1.025;exitDx=0;exitDy=0;entryX=0.5;entryY=0;entryDx=0;entryDy=0;exitPerimeter=0;" parent="1" source="h6kPkTVQXJsnWw4E5mSr-12" target="h6kPkTVQXJsnWw4E5mSr-17" edge="1">
          <mxGeometry relative="1" as="geometry" />
        </mxCell>
        <mxCell id="h6kPkTVQXJsnWw4E5mSr-19" style="edgeStyle=orthogonalEdgeStyle;rounded=0;orthogonalLoop=1;jettySize=auto;html=1;exitX=0.665;exitY=1.002;exitDx=0;exitDy=0;exitPerimeter=0;" parent="1" source="h6kPkTVQXJsnWw4E5mSr-12" target="h6kPkTVQXJsnWw4E5mSr-15" edge="1">
          <mxGeometry relative="1" as="geometry" />
        </mxCell>
        <mxCell id="h6kPkTVQXJsnWw4E5mSr-20" style="edgeStyle=orthogonalEdgeStyle;rounded=0;orthogonalLoop=1;jettySize=auto;html=1;entryX=0.5;entryY=0;entryDx=0;entryDy=0;" parent="1" source="h6kPkTVQXJsnWw4E5mSr-12" target="h6kPkTVQXJsnWw4E5mSr-16" edge="1">
          <mxGeometry relative="1" as="geometry" />
        </mxCell>
        <mxCell id="h6kPkTVQXJsnWw4E5mSr-12" value="Study room" style="rounded=0;whiteSpace=wrap;html=1;" parent="1" vertex="1">
          <mxGeometry x="340" y="340" width="120" height="40" as="geometry" />
        </mxCell>
        <mxCell id="VjBglBWpp-UR3eY2EWfW-2" style="edgeStyle=orthogonalEdgeStyle;rounded=0;orthogonalLoop=1;jettySize=auto;html=1;entryX=0.5;entryY=0;entryDx=0;entryDy=0;" parent="1" source="h6kPkTVQXJsnWw4E5mSr-15" target="VjBglBWpp-UR3eY2EWfW-1" edge="1">
          <mxGeometry relative="1" as="geometry" />
        </mxCell>
        <mxCell id="h6kPkTVQXJsnWw4E5mSr-15" value="Yellow room" style="rounded=0;whiteSpace=wrap;html=1;" parent="1" vertex="1">
          <mxGeometry x="480" y="420" width="120" height="40" as="geometry" />
        </mxCell>
        <mxCell id="h6kPkTVQXJsnWw4E5mSr-61" style="edgeStyle=orthogonalEdgeStyle;rounded=0;orthogonalLoop=1;jettySize=auto;html=1;exitX=0.5;exitY=1;exitDx=0;exitDy=0;entryX=0.5;entryY=0;entryDx=0;entryDy=0;" parent="1" source="h6kPkTVQXJsnWw4E5mSr-16" target="h6kPkTVQXJsnWw4E5mSr-59" edge="1">
          <mxGeometry relative="1" as="geometry" />
        </mxCell>
        <mxCell id="h6kPkTVQXJsnWw4E5mSr-62" style="edgeStyle=orthogonalEdgeStyle;rounded=0;orthogonalLoop=1;jettySize=auto;html=1;exitX=0.5;exitY=1;exitDx=0;exitDy=0;entryX=0.5;entryY=0;entryDx=0;entryDy=0;" parent="1" source="h6kPkTVQXJsnWw4E5mSr-16" target="h6kPkTVQXJsnWw4E5mSr-58" edge="1">
          <mxGeometry relative="1" as="geometry" />
        </mxCell>
        <mxCell id="h6kPkTVQXJsnWw4E5mSr-69" style="edgeStyle=orthogonalEdgeStyle;rounded=0;orthogonalLoop=1;jettySize=auto;html=1;exitX=0.5;exitY=1;exitDx=0;exitDy=0;entryX=0;entryY=0.5;entryDx=0;entryDy=0;" parent="1" source="h6kPkTVQXJsnWw4E5mSr-16" target="h6kPkTVQXJsnWw4E5mSr-68" edge="1">
          <mxGeometry relative="1" as="geometry" />
        </mxCell>
        <mxCell id="h6kPkTVQXJsnWw4E5mSr-16" value="Green room" style="rounded=0;whiteSpace=wrap;html=1;" parent="1" vertex="1">
          <mxGeometry x="340" y="500" width="120" height="40" as="geometry" />
        </mxCell>
        <mxCell id="h6kPkTVQXJsnWw4E5mSr-28" style="edgeStyle=orthogonalEdgeStyle;rounded=0;orthogonalLoop=1;jettySize=auto;html=1;exitX=0.5;exitY=1;exitDx=0;exitDy=0;" parent="1" source="h6kPkTVQXJsnWw4E5mSr-17" target="h6kPkTVQXJsnWw4E5mSr-26" edge="1">
          <mxGeometry relative="1" as="geometry" />
        </mxCell>
        <mxCell id="h6kPkTVQXJsnWw4E5mSr-29" style="edgeStyle=orthogonalEdgeStyle;rounded=0;orthogonalLoop=1;jettySize=auto;html=1;exitX=0.5;exitY=1;exitDx=0;exitDy=0;entryX=0.5;entryY=0;entryDx=0;entryDy=0;" parent="1" source="h6kPkTVQXJsnWw4E5mSr-17" target="h6kPkTVQXJsnWw4E5mSr-25" edge="1">
          <mxGeometry relative="1" as="geometry" />
        </mxCell>
        <mxCell id="h6kPkTVQXJsnWw4E5mSr-17" value="Blue room" style="rounded=0;whiteSpace=wrap;html=1;" parent="1" vertex="1">
          <mxGeometry x="200" y="420" width="120" height="40" as="geometry" />
        </mxCell>
        <mxCell id="h6kPkTVQXJsnWw4E5mSr-21" value="" style="ellipse;html=1;shape=startState;fillColor=#000000;strokeColor=#ff0000;" parent="1" vertex="1">
          <mxGeometry x="305" y="30" width="30" height="30" as="geometry" />
        </mxCell>
        <mxCell id="h6kPkTVQXJsnWw4E5mSr-22" value="" style="edgeStyle=orthogonalEdgeStyle;html=1;verticalAlign=bottom;endArrow=open;endSize=8;strokeColor=#ff0000;entryX=0.5;entryY=0;entryDx=0;entryDy=0;" parent="1" source="h6kPkTVQXJsnWw4E5mSr-21" target="h6kPkTVQXJsnWw4E5mSr-2" edge="1">
          <mxGeometry relative="1" as="geometry">
            <mxPoint x="320" y="90" as="targetPoint" />
          </mxGeometry>
        </mxCell>
        <mxCell id="h6kPkTVQXJsnWw4E5mSr-23" value="" style="ellipse;html=1;shape=endState;fillColor=#000000;strokeColor=#ff0000;" parent="1" vertex="1">
          <mxGeometry x="465" y="30" width="30" height="30" as="geometry" />
        </mxCell>
        <mxCell id="h6kPkTVQXJsnWw4E5mSr-25" value="Squares" style="rounded=0;whiteSpace=wrap;html=1;" parent="1" vertex="1">
          <mxGeometry x="200" y="500" width="120" height="40" as="geometry" />
        </mxCell>
        <mxCell id="h6kPkTVQXJsnWw4E5mSr-26" value="Boss room 1" style="rounded=0;whiteSpace=wrap;html=1;" parent="1" vertex="1">
          <mxGeometry x="60" y="500" width="120" height="40" as="geometry" />
        </mxCell>
        <mxCell id="h6kPkTVQXJsnWw4E5mSr-36" value="" style="pointerEvents=1;shadow=0;dashed=0;html=1;strokeColor=none;fillColor=#505050;labelPosition=center;verticalLabelPosition=bottom;verticalAlign=top;outlineConnect=0;align=center;shape=mxgraph.office.security.lock_with_key_security_orange;" parent="1" vertex="1">
          <mxGeometry x="550" y="60" width="27" height="33.32" as="geometry" />
        </mxCell>
        <mxCell id="h6kPkTVQXJsnWw4E5mSr-37" value="" style="pointerEvents=1;shadow=0;dashed=0;html=1;strokeColor=none;fillColor=#505050;labelPosition=center;verticalLabelPosition=bottom;verticalAlign=top;outlineConnect=0;align=center;shape=mxgraph.office.security.lock_with_key_security_blue;" parent="1" vertex="1">
          <mxGeometry x="520" y="60" width="27" height="33.32" as="geometry" />
        </mxCell>
        <mxCell id="h6kPkTVQXJsnWw4E5mSr-40" value="" style="pointerEvents=1;shadow=0;dashed=0;html=1;strokeColor=none;fillColor=#505050;labelPosition=center;verticalLabelPosition=bottom;verticalAlign=top;outlineConnect=0;align=center;shape=mxgraph.office.security.lock_with_key_security_ghosted;" parent="1" vertex="1">
          <mxGeometry x="580" y="60" width="27" height="33.32" as="geometry" />
        </mxCell>
        <mxCell id="h6kPkTVQXJsnWw4E5mSr-41" value="" style="pointerEvents=1;shadow=0;dashed=0;html=1;strokeColor=none;fillColor=#505050;labelPosition=center;verticalLabelPosition=bottom;verticalAlign=top;outlineConnect=0;align=center;shape=mxgraph.office.security.lock_with_key_security;" parent="1" vertex="1">
          <mxGeometry x="483" y="423.34" width="27" height="33.32" as="geometry" />
        </mxCell>
        <mxCell id="h6kPkTVQXJsnWw4E5mSr-42" value="" style="pointerEvents=1;shadow=0;dashed=0;html=1;strokeColor=none;fillColor=#505050;labelPosition=center;verticalLabelPosition=bottom;verticalAlign=top;outlineConnect=0;align=center;shape=mxgraph.office.security.lock_with_key_security_green;" parent="1" vertex="1">
          <mxGeometry x="343" y="503.35" width="27" height="33.32" as="geometry" />
        </mxCell>
        <mxCell id="h6kPkTVQXJsnWw4E5mSr-49" style="edgeStyle=orthogonalEdgeStyle;rounded=0;orthogonalLoop=1;jettySize=auto;html=1;" parent="1" source="h6kPkTVQXJsnWw4E5mSr-44" target="h6kPkTVQXJsnWw4E5mSr-37" edge="1">
          <mxGeometry relative="1" as="geometry">
            <Array as="points">
              <mxPoint x="20" y="565" />
              <mxPoint x="20" y="20" />
              <mxPoint x="534" y="20" />
            </Array>
          </mxGeometry>
        </mxCell>
        <mxCell id="h6kPkTVQXJsnWw4E5mSr-44" value="" style="pointerEvents=1;shadow=0;dashed=0;html=1;strokeColor=none;labelPosition=center;verticalLabelPosition=bottom;verticalAlign=top;outlineConnect=0;align=center;shape=mxgraph.office.security.key_permissions;fillColor=#2072B8;" parent="1" vertex="1">
          <mxGeometry x="60" y="550" width="14.15" height="30" as="geometry" />
        </mxCell>
        <mxCell id="h6kPkTVQXJsnWw4E5mSr-45" value="" style="aspect=fixed;pointerEvents=1;shadow=0;dashed=0;html=1;strokeColor=none;labelPosition=center;verticalLabelPosition=bottom;verticalAlign=top;align=center;fillColor=#00188D;shape=mxgraph.mscae.enterprise.lock" parent="1" vertex="1">
          <mxGeometry x="161" y="507.82" width="19" height="24.36" as="geometry" />
        </mxCell>
        <mxCell id="h6kPkTVQXJsnWw4E5mSr-47" style="edgeStyle=orthogonalEdgeStyle;rounded=0;orthogonalLoop=1;jettySize=auto;html=1;entryX=0.5;entryY=1;entryDx=0;entryDy=0;entryPerimeter=0;fillColor=#6a00ff;strokeColor=#3700CC;" parent="1" source="h6kPkTVQXJsnWw4E5mSr-46" target="h6kPkTVQXJsnWw4E5mSr-45" edge="1">
          <mxGeometry relative="1" as="geometry">
            <Array as="points">
              <mxPoint x="307" y="552" />
              <mxPoint x="171" y="552" />
            </Array>
          </mxGeometry>
        </mxCell>
        <mxCell id="h6kPkTVQXJsnWw4E5mSr-46" value="" style="aspect=fixed;pointerEvents=1;shadow=0;dashed=0;html=1;strokeColor=none;labelPosition=center;verticalLabelPosition=bottom;verticalAlign=top;align=center;fillColor=#00188D;shape=mxgraph.mscae.enterprise.key_permissions" parent="1" vertex="1">
          <mxGeometry x="300" y="507.82" width="15" height="28.85" as="geometry" />
        </mxCell>
        <mxCell id="h6kPkTVQXJsnWw4E5mSr-53" style="edgeStyle=orthogonalEdgeStyle;rounded=0;orthogonalLoop=1;jettySize=auto;html=1;fillColor=#60a917;strokeColor=#2D7600;" parent="1" source="h6kPkTVQXJsnWw4E5mSr-48" target="h6kPkTVQXJsnWw4E5mSr-42" edge="1">
          <mxGeometry relative="1" as="geometry">
            <mxPoint x="350" y="410" as="targetPoint" />
            <Array as="points">
              <mxPoint x="97" y="590" />
              <mxPoint x="40" y="590" />
              <mxPoint x="40" y="470" />
              <mxPoint x="357" y="470" />
            </Array>
          </mxGeometry>
        </mxCell>
        <mxCell id="h6kPkTVQXJsnWw4E5mSr-48" value="" style="pointerEvents=1;shadow=0;dashed=0;html=1;strokeColor=none;labelPosition=center;verticalLabelPosition=bottom;verticalAlign=top;outlineConnect=0;align=center;shape=mxgraph.office.security.key_permissions;fillColor=#7FBA42;" parent="1" vertex="1">
          <mxGeometry x="90" y="550" width="14.15" height="30" as="geometry" />
        </mxCell>
        <mxCell id="h6kPkTVQXJsnWw4E5mSr-52" style="edgeStyle=orthogonalEdgeStyle;rounded=0;orthogonalLoop=1;jettySize=auto;html=1;entryX=0.005;entryY=0.643;entryDx=0;entryDy=0;entryPerimeter=0;fillColor=#6a00ff;strokeColor=#3700CC;" parent="1" source="h6kPkTVQXJsnWw4E5mSr-50" target="h6kPkTVQXJsnWw4E5mSr-51" edge="1">
          <mxGeometry relative="1" as="geometry">
            <Array as="points">
              <mxPoint x="278" y="364" />
            </Array>
          </mxGeometry>
        </mxCell>
        <mxCell id="h6kPkTVQXJsnWw4E5mSr-50" value="" style="aspect=fixed;pointerEvents=1;shadow=0;dashed=0;html=1;strokeColor=none;labelPosition=center;verticalLabelPosition=bottom;verticalAlign=top;align=center;fillColor=#00188D;shape=mxgraph.mscae.enterprise.key_permissions" parent="1" vertex="1">
          <mxGeometry x="270" y="264.61" width="16" height="30.77" as="geometry" />
        </mxCell>
        <mxCell id="h6kPkTVQXJsnWw4E5mSr-51" value="" style="aspect=fixed;pointerEvents=1;shadow=0;dashed=0;html=1;strokeColor=none;labelPosition=center;verticalLabelPosition=bottom;verticalAlign=top;align=center;fillColor=#00188D;shape=mxgraph.mscae.enterprise.lock" parent="1" vertex="1">
          <mxGeometry x="347" y="347.82" width="19" height="24.36" as="geometry" />
        </mxCell>
        <mxCell id="h6kPkTVQXJsnWw4E5mSr-54" value="" style="aspect=fixed;pointerEvents=1;shadow=0;dashed=0;html=1;strokeColor=none;labelPosition=center;verticalLabelPosition=bottom;verticalAlign=top;align=center;fillColor=#00188D;shape=mxgraph.mscae.enterprise.lock_unlocked" parent="1" vertex="1">
          <mxGeometry x="298" y="428.51" width="17" height="22.97" as="geometry" />
        </mxCell>
        <mxCell id="h6kPkTVQXJsnWw4E5mSr-55" value="" style="aspect=fixed;pointerEvents=1;shadow=0;dashed=0;html=1;strokeColor=none;labelPosition=center;verticalLabelPosition=bottom;verticalAlign=top;align=center;fillColor=#00188D;shape=mxgraph.mscae.enterprise.lock_unlocked" parent="1" vertex="1">
          <mxGeometry x="435" y="507.82" width="17" height="22.97" as="geometry" />
        </mxCell>
        <mxCell id="h6kPkTVQXJsnWw4E5mSr-56" value="" style="aspect=fixed;pointerEvents=1;shadow=0;dashed=0;html=1;strokeColor=none;labelPosition=center;verticalLabelPosition=bottom;verticalAlign=top;align=center;fillColor=#00188D;shape=mxgraph.mscae.enterprise.lock_unlocked" parent="1" vertex="1">
          <mxGeometry x="577" y="428.51" width="17" height="22.97" as="geometry" />
        </mxCell>
        <mxCell id="h6kPkTVQXJsnWw4E5mSr-57" value="Locked until boss is beaten" style="aspect=fixed;pointerEvents=1;shadow=0;dashed=0;html=1;strokeColor=none;labelPosition=center;verticalLabelPosition=bottom;verticalAlign=top;align=center;fillColor=#00188D;shape=mxgraph.mscae.enterprise.lock_unlocked" parent="1" vertex="1">
          <mxGeometry x="740" y="10" width="37" height="50" as="geometry" />
        </mxCell>
        <mxCell id="h6kPkTVQXJsnWw4E5mSr-58" value="Triangles" style="rounded=0;whiteSpace=wrap;html=1;" parent="1" vertex="1">
          <mxGeometry x="420" y="610" width="120" height="40" as="geometry" />
        </mxCell>
        <mxCell id="h6kPkTVQXJsnWw4E5mSr-67" style="edgeStyle=orthogonalEdgeStyle;rounded=0;orthogonalLoop=1;jettySize=auto;html=1;" parent="1" source="h6kPkTVQXJsnWw4E5mSr-59" target="h6kPkTVQXJsnWw4E5mSr-60" edge="1">
          <mxGeometry relative="1" as="geometry" />
        </mxCell>
        <mxCell id="h6kPkTVQXJsnWw4E5mSr-59" value="Circles" style="rounded=0;whiteSpace=wrap;html=1;" parent="1" vertex="1">
          <mxGeometry x="260" y="610" width="120" height="40" as="geometry" />
        </mxCell>
        <mxCell id="h6kPkTVQXJsnWw4E5mSr-60" value="Boss room 2" style="rounded=0;whiteSpace=wrap;html=1;" parent="1" vertex="1">
          <mxGeometry x="260" y="690" width="120" height="40" as="geometry" />
        </mxCell>
        <mxCell id="h6kPkTVQXJsnWw4E5mSr-63" value="" style="shape=mxgraph.bpmn.script_task;html=1;outlineConnect=0;" parent="1" vertex="1">
          <mxGeometry x="438" y="193" width="14" height="14" as="geometry" />
        </mxCell>
        <mxCell id="h6kPkTVQXJsnWw4E5mSr-64" value="" style="shape=mxgraph.bpmn.script_task;html=1;outlineConnect=0;" parent="1" vertex="1">
          <mxGeometry x="272" y="623" width="14" height="14" as="geometry" />
        </mxCell>
        <mxCell id="h6kPkTVQXJsnWw4E5mSr-65" value="" style="shape=image;html=1;verticalAlign=top;verticalLabelPosition=bottom;labelBackgroundColor=#ffffff;imageAspect=0;aspect=fixed;image=https://cdn4.iconfinder.com/data/icons/standard-free-icons/139/Setting01-128.png" parent="1" vertex="1">
          <mxGeometry x="424" y="616" width="28" height="28" as="geometry" />
        </mxCell>
        <mxCell id="h6kPkTVQXJsnWw4E5mSr-66" value="" style="shape=image;html=1;verticalAlign=top;verticalLabelPosition=bottom;labelBackgroundColor=#ffffff;imageAspect=0;aspect=fixed;image=https://cdn1.iconfinder.com/data/icons/construction-tool-line-foreman-equipment/512/Screw_bolts-128.png" parent="1" vertex="1">
          <mxGeometry x="343" y="612" width="38" height="38" as="geometry" />
        </mxCell>
        <mxCell id="h6kPkTVQXJsnWw4E5mSr-68" value="Numbers" style="rounded=0;whiteSpace=wrap;html=1;" parent="1" vertex="1">
          <mxGeometry x="420" y="690" width="120" height="40" as="geometry" />
        </mxCell>
        <mxCell id="h6kPkTVQXJsnWw4E5mSr-70" value="" style="shape=image;html=1;verticalAlign=top;verticalLabelPosition=bottom;labelBackgroundColor=#ffffff;imageAspect=0;aspect=fixed;image=https://cdn4.iconfinder.com/data/icons/standard-free-icons/139/Setting01-128.png" parent="1" vertex="1">
          <mxGeometry x="424" y="696" width="28" height="28" as="geometry" />
        </mxCell>
        <mxCell id="h6kPkTVQXJsnWw4E5mSr-73" style="edgeStyle=orthogonalEdgeStyle;rounded=0;orthogonalLoop=1;jettySize=auto;html=1;fillColor=#a20025;strokeColor=#6F0000;" parent="1" source="h6kPkTVQXJsnWw4E5mSr-72" target="h6kPkTVQXJsnWw4E5mSr-41" edge="1">
          <mxGeometry relative="1" as="geometry">
            <Array as="points">
              <mxPoint x="240" y="755" />
              <mxPoint x="240" y="560" />
              <mxPoint x="470" y="560" />
              <mxPoint x="470" y="440" />
            </Array>
          </mxGeometry>
        </mxCell>
        <mxCell id="h6kPkTVQXJsnWw4E5mSr-72" value="" style="pointerEvents=1;shadow=0;dashed=0;html=1;strokeColor=none;fillColor=#505050;labelPosition=center;verticalLabelPosition=bottom;verticalAlign=top;outlineConnect=0;align=center;shape=mxgraph.office.security.key_permissions;" parent="1" vertex="1">
          <mxGeometry x="260" y="740" width="14.15" height="30" as="geometry" />
        </mxCell>
        <mxCell id="h6kPkTVQXJsnWw4E5mSr-75" style="edgeStyle=orthogonalEdgeStyle;rounded=0;orthogonalLoop=1;jettySize=auto;html=1;fillColor=#e51400;strokeColor=#B20000;" parent="1" source="h6kPkTVQXJsnWw4E5mSr-74" target="h6kPkTVQXJsnWw4E5mSr-36" edge="1">
          <mxGeometry relative="1" as="geometry">
            <mxPoint x="-30" y="-20" as="targetPoint" />
            <Array as="points">
              <mxPoint x="291" y="790" />
              <mxPoint x="10" y="790" />
              <mxPoint x="10" y="10" />
              <mxPoint x="563" y="10" />
            </Array>
          </mxGeometry>
        </mxCell>
        <mxCell id="h6kPkTVQXJsnWw4E5mSr-74" value="" style="pointerEvents=1;shadow=0;dashed=0;html=1;strokeColor=none;labelPosition=center;verticalLabelPosition=bottom;verticalAlign=top;outlineConnect=0;align=center;shape=mxgraph.office.security.key_permissions;fillColor=#DA4026;" parent="1" vertex="1">
          <mxGeometry x="283.85" y="740" width="14.15" height="30" as="geometry" />
        </mxCell>
        <mxCell id="h6kPkTVQXJsnWw4E5mSr-78" value="Boss room 3" style="rounded=0;whiteSpace=wrap;html=1;" parent="1" vertex="1">
          <mxGeometry x="560" y="610" width="120" height="40" as="geometry" />
        </mxCell>
        <mxCell id="VjBglBWpp-UR3eY2EWfW-5" style="edgeStyle=orthogonalEdgeStyle;rounded=0;orthogonalLoop=1;jettySize=auto;html=1;entryX=0.5;entryY=0;entryDx=0;entryDy=0;" parent="1" source="VjBglBWpp-UR3eY2EWfW-1" target="h6kPkTVQXJsnWw4E5mSr-78" edge="1">
          <mxGeometry relative="1" as="geometry">
            <Array as="points">
              <mxPoint x="540" y="580" />
              <mxPoint x="620" y="580" />
            </Array>
          </mxGeometry>
        </mxCell>
        <mxCell id="VjBglBWpp-UR3eY2EWfW-1" value="Prison" style="rounded=0;whiteSpace=wrap;html=1;" parent="1" vertex="1">
          <mxGeometry x="480" y="499.3" width="120" height="40" as="geometry" />
        </mxCell>
        <mxCell id="VjBglBWpp-UR3eY2EWfW-7" style="edgeStyle=orthogonalEdgeStyle;rounded=0;orthogonalLoop=1;jettySize=auto;html=1;" parent="1" source="VjBglBWpp-UR3eY2EWfW-6" target="h6kPkTVQXJsnWw4E5mSr-40" edge="1">
          <mxGeometry relative="1" as="geometry">
            <Array as="points">
              <mxPoint x="568" y="720" />
              <mxPoint x="700" y="720" />
              <mxPoint x="700" y="400" />
              <mxPoint x="593" y="400" />
            </Array>
          </mxGeometry>
        </mxCell>
        <mxCell id="VjBglBWpp-UR3eY2EWfW-6" value="" style="pointerEvents=1;shadow=0;dashed=0;html=1;strokeColor=none;labelPosition=center;verticalLabelPosition=bottom;verticalAlign=top;outlineConnect=0;align=center;shape=mxgraph.office.security.key_permissions;fillColor=#CCCBCB;" parent="1" vertex="1">
          <mxGeometry x="560" y="658.2" width="15" height="31.8" as="geometry" />
        </mxCell>
      </root>
    </mxGraphModel>
  </diagram>
</mxfile>
